<svg width="512" height="512" viewBox="0 0 512 512" fill="none" xmlns="http://www.w3.org/2000/svg">
<path d="M256 61.44L65.3312 129.434L94.4128 381.542L256 471.04L417.587 381.542L446.669 129.434L256 61.44Z" fill="#B940FF"/>
<path d="M256 61.44V106.906V106.701V314.163V471.04L417.587 381.542L446.669 129.434L256 61.44Z" fill="#AD10E3"/>
<path d="M353 327H375C383.837 327 391 319.837 391 311V202C391 193.163 383.837 186 375 186H353" stroke="white" stroke-width="4" stroke-linecap="round" stroke-linejoin="round"/>
<path d="M296 186.5H135.5C126.663 186.5 119.5 193.663 119.5 202.5V311C119.5 319.837 126.663 327 135.5 327H296" stroke="white" stroke-width="4" stroke-linecap="round" stroke-linejoin="round"/>
<path d="M150.188 280.285C153.729 280.285 156.673 281.348 159.02 283.473C161.366 285.553 162.539 288.232 162.539 291.508C162.539 294.784 161.366 297.484 159.02 299.609C156.673 301.69 153.729 302.73 150.188 302.73C146.602 302.73 143.635 301.668 141.289 299.543C138.987 297.418 137.836 294.74 137.836 291.508C137.836 288.276 138.987 285.598 141.289 283.473C143.635 281.348 146.602 280.285 150.188 280.285ZM150.188 227.293C153.729 227.293 156.673 228.355 159.02 230.48C161.366 232.561 162.539 235.24 162.539 238.516C162.539 241.792 161.366 244.492 159.02 246.617C156.673 248.698 153.729 249.738 150.188 249.738C146.602 249.738 143.635 248.676 141.289 246.551C138.987 244.426 137.836 241.747 137.836 238.516C137.836 235.284 138.987 232.605 141.289 230.48C143.635 228.355 146.602 227.293 150.188 227.293ZM199.812 310.301H183.94L216.944 205.312H232.882L199.812 310.301ZM246.115 310.301H230.244L263.248 205.312H279.186L246.115 310.301Z" fill="white"/>
<path d="M335.417 328.917C335.417 331.679 336.514 334.329 338.468 336.282C340.421 338.236 343.071 339.333 345.833 339.333H366.667V360.167H340.625C334.896 360.167 325 355.479 325 349.75C325 355.479 315.104 360.167 309.375 360.167H283.333V339.333H304.167C306.929 339.333 309.579 338.236 311.532 336.282C313.486 334.329 314.583 331.679 314.583 328.917V183.083C314.583 180.321 313.486 177.671 311.532 175.718C309.579 173.764 306.929 172.667 304.167 172.667H283.333V151.833H309.375C315.104 151.833 325 156.521 325 162.25C325 156.521 334.896 151.833 340.625 151.833H366.667V172.667H345.833C343.071 172.667 340.421 173.764 338.468 175.718C336.514 177.671 335.417 180.321 335.417 183.083V328.917Z" fill="white"/>
</svg>
